<svg width="150" height="108" xmlns="http://www.w3.org/2000/svg"><g fill="#FFF" fill-rule="evenodd"><path d="M63.77 78.06v28.906c0 1.352-2.028 1.352-2.028 0V78.059c0-1.352 2.028-1.352 2.028 0zm26.858 0v28.906c0 1.352-2.028 1.352-2.028 0V78.059c0-1.352 2.028-1.352 2.028 0z" fill-rule="nonzero"/><path d="M63.826 2.977h2.42V1.734h-6.192v1.243h2.421V9.37h1.351zm14.2 3.176V9.37h1.34V1.734h-1.34v3.174h-3.642V1.734h-1.34V9.37h1.34V6.153zm14.345-4.419h-5.658V9.37h5.712v-1.2h-4.372V6.118h3.827V4.921h-3.827V2.934h4.318z"/><path d="M10.066 1.736l-.016 14.835c0 1.352-2.028 1.349-2.025 0V1.736c.016-1.354 2.044-1.352 2.04 0zm-.006 44.721v60.509c0 1.352-2.027 1.352-2.025 0V46.457c0-1.354 2.028-1.352 2.026 0zM36.913 1.736v14.835c0 1.352-2.03 1.349-2.028 0l.016-14.835c-.003-1.354 2.025-1.352 2.012 0zm0 76.324v28.906c0 1.352-2.028 1.352-2.028 0V78.059c.005-1.354 2.028-1.352 2.028 0zm80.585-76.324l-.015 14.835c0 1.352-2.028 1.349-2.026 0l.019-14.837c0-1.352 2.025-1.35 2.022.002zm-.008 76.324v28.906c0 1.352-2.025 1.352-2.025 0V78.059c.011-1.354 2.025-1.352 2.025 0zm26.869-76.324l-.016 14.835c0 1.352-2.028 1.349-2.025 0l.015-14.835c0-1.354 2.028-1.352 2.026 0zm-.003 44.721v60.509c0 1.352-2.025 1.352-2.025 0V46.457c-.003-1.354 2.025-1.352 2.025 0zm-35.359-9.1h5.627V25.65h-5.627v-2.656h15.001v2.656h-5.626v11.708h5.626v2.656h-15v-2.656zm33.958 2.96a8.884 8.884 0 0 1-4.491-1.185 8.46 8.46 0 0 1-3.082-3.135 8.983 8.983 0 0 1-1.15-4.446 9.097 9.097 0 0 1 1.14-4.486 8.48 8.48 0 0 1 3.113-3.166 9.141 9.141 0 0 1 4.626-1.209c1.593.013 2.915.256 3.968.73a8.867 8.867 0 0 1 2.747 1.9l-2.389 2.752a8.201 8.201 0 0 0-2.033-1.41 5.382 5.382 0 0 0-2.322-.513 4.725 4.725 0 0 0-3.546 1.556 5.53 5.53 0 0 0-1.39 3.75 5.68 5.68 0 0 0 1.371 3.823 4.702 4.702 0 0 0 3.565 1.593 5.38 5.38 0 0 0 2.466-.53 8.7 8.7 0 0 0 2.009-1.454l2.389 2.41a9.556 9.556 0 0 1-2.92 2.225c-1.097.519-2.454.784-4.071.794zm-61.805-.293V22.983h4.04l4.474 7.206 4.475-7.206h4.04v17.041h-3.716V28.898l-4.799 7.283-4.84-7.206v11.052l-3.674-.003zm-47.098 0V26.441H28.87v-3.453h14.107v3.453h-5.181v13.583h-3.745zM6.777 32.89h4.526l-2.259-5.525-2.267 5.525zM.062 40.024l7.3-17.161h3.45l7.299 17.161h-3.915l-1.556-3.822h-7.2l-1.558 3.822H.062zm58.466-5.578l7.246-7.248a4.99 4.99 0 0 0-2.991-.996c-2.83 0-5.125 2.369-5.125 5.293a5.39 5.39 0 0 0 .87 2.954v-.003zm8.608-5.742l-7.193 7.211a4.98 4.98 0 0 0 2.84.885c2.83 0 5.122-2.37 5.122-5.291a5.39 5.39 0 0 0-.77-2.803v-.002zm5.711-5.716l-2.99 2.993a8.591 8.591 0 0 1 2.008 5.517c0 4.858-4.066 8.794-9.082 8.794a9.237 9.237 0 0 1-5.462-1.766l-3.668 3.673-1.434-1.434 3.607-3.612a8.588 8.588 0 0 1-2.123-5.655c0-4.858 4.066-8.797 9.083-8.797a9.23 9.23 0 0 1 5.608 1.878l3.023-3.023 1.43 1.432zM36.602 71.284a9.573 9.573 0 0 1-4.676-1.153 8.133 8.133 0 0 1-3.132-3.1 9.078 9.078 0 0 1-1.142-4.515 8.919 8.919 0 0 1 1.168-4.486 8.608 8.608 0 0 1 3.153-3.166 9.107 9.107 0 0 1 4.605-1.209 10.816 10.816 0 0 1 3.828.603c1.05.402 2.019.99 2.86 1.735l-2.359 2.847a7.911 7.911 0 0 0-1.977-1.275 6.225 6.225 0 0 0-2.474-.452 4.672 4.672 0 0 0-3.466 1.568 5.54 5.54 0 0 0-1.423 3.74c.027 1.635.51 2.921 1.447 3.917s2.176 1.503 3.716 1.533a6.954 6.954 0 0 0 1.919-.266 5.23 5.23 0 0 0 1.608-.765v-2.436H36.48V61.18h7.397v7.405a11.584 11.584 0 0 1-3.126 1.91c-1.32.527-2.728.795-4.149.789zm26.101-.027c-2.309 0-4.11-.635-5.401-1.904-1.292-1.27-1.948-3.158-1.97-5.666V53.95h3.746v9.639c0 1.392.337 2.438.98 3.147.641.71 1.541 1.063 2.693 1.063 1.152 0 2.052-.345 2.694-1.03.642-.686.969-1.709.98-3.06V53.95h3.744v9.615c-.024 2.578-.697 4.506-2.017 5.782-1.32 1.277-3.136 1.914-5.449 1.91zm19.397-.265V53.95h3.45l7.979 10.492V53.95h3.697v17.042h-3.185l-8.247-10.835v10.835H82.1zm34.005.241a11.08 11.08 0 0 1-3.814-.677 10.692 10.692 0 0 1-3.413-2.048l2.213-2.656a9.968 9.968 0 0 0 2.39 1.509c.85.37 1.768.561 2.696.56a3.308 3.308 0 0 0 1.802-.43c.41-.249.66-.696.655-1.177a1.286 1.286 0 0 0-.647-1.214c-.467-.318-1.395-.652-2.784-1.001a17.095 17.095 0 0 1-2.986-.988 4.675 4.675 0 0 1-1.956-1.562c-.462-.659-.696-1.544-.701-2.656.032-1.615.59-2.858 1.675-3.777s2.516-1.39 4.283-1.408c1.174-.008 2.34.181 3.45.56a9.67 9.67 0 0 1 2.88 1.594l-1.945 2.824a11.209 11.209 0 0 0-2.24-1.233 6.048 6.048 0 0 0-2.187-.446 2.75 2.75 0 0 0-1.632.433 1.28 1.28 0 0 0-.558 1.063 1.328 1.328 0 0 0 .73 1.317c.52.303 1.5.63 2.941.983 1.736.423 3.067 1.017 3.995 1.782.927.765 1.396 1.875 1.406 3.33-.032 1.751-.613 3.053-1.749 3.961-1.136.908-2.635 1.35-4.504 1.365v-.008z" fill-rule="nonzero"/></g></svg>