<svg version="1" xmlns="http://www.w3.org/2000/svg" width="853.333" height="853.333" viewBox="0 0 640 640"><path d="M548.6 46.9l-46.8 46.9-8.7-6.3c-17.8-12.8-41.9-25.5-64.4-33.9-9.9-3.7-30.6-10-36.2-10.9-1.6-.3-5.5-1.1-8.5-1.7-7.4-1.5-8.7-1.7-14.5-2.5-2.7-.4-6.1-.8-7.5-1-16.2-2.3-54.8-2.3-68-.1-1.4.3-4.7.7-7.5 1.1-2.7.3-5.7.8-6.5 1-.8.2-3.3.6-5.5 1-2.2.3-4.7.7-5.5 1-.8.2-2.6.6-4 .9-1.4.2-5 1.1-8 2-3 .9-5.7 1.6-6 1.6-1.4.1-9.5 2.5-18.1 5.5C175 71.6 125.2 109.7 91.3 160c-4.5 6.7-17.3 28.5-17.3 29.5 0 .2-1.5 3.7-3.4 7.7-10.1 21.3-19.3 52.5-22.1 74.3-2.7 22-2.8 53.2-.1 72.5 6.1 43.3 22.7 84.9 47.8 119.5 7 9.7 9 12.4 12.8 16.7l3 3.3-56 56-56 56 22.3 22.3L44.5 640l56.9-56.9 56.9-56.9 10.3 6.9c5.6 3.8 10.6 6.9 10.9 6.9.4 0 1.9.9 3.4 1.9 9.1 6.5 42 21 59 26.1 16.8 5 37.2 9.4 48.4 10.5 2.9.3 7.7.8 10.7 1.2 7.6 1 41.6 1 52 0 14.9-1.4 17.2-1.7 32-4.7 111.4-22.4 197.4-106.7 219.5-215.3.9-4.3 1.8-9.7 2-12 .3-2.3.7-5.3 1-6.7 1.6-7.6 2.3-36 1.2-52-.6-9.1-.9-11.3-2.2-20.5-5-33.3-17.5-67.9-35.3-97.4-6.7-11.2-15.7-24-20.9-30l-3.2-3.6L593.6 91 640 44.5l-22.3-22.3L595.5 0l-46.9 46.9zm-191.8 99.9c12.6 2.6 29.1 8.1 39.7 13.4 7 3.5 20.2 11.6 23 14 .9.8-222 224.8-223.6 224.8-.9 0-4.5-6.2-10.2-17.5-8-15.8-14.6-39-16.2-56.5-.6-7.7-.6-27.9.1-33.5 1.4-11.8 2.2-15.8 5-27 7.4-28.6 23.6-56.2 44.7-76.2 6.6-6.2 9.3-8.5 17.5-14.9 9.1-7.1 28.5-16.9 42.5-21.5 7.9-2.6 24.2-6.2 32.2-7.2 8.8-1 35.6.2 45.3 2.1zM469 233.3c6.6 13.9 8.5 18.9 11.9 32 6.6 25.4 7.4 51.8 2.1 77.5-3.9 19.6-10.9 37-21.8 54.6-39.9 64.5-119.4 91.6-189.4 64.7-10.8-4.2-27.8-13.1-31.7-16.7-.8-.7 222.2-223.3 223.1-222.8.5.3 3.1 5.1 5.8 10.7z"/></svg>