<svg viewBox="0 0 125 106" xmlns="http://www.w3.org/2000/svg"><g fill="none" fill-rule="evenodd"><path fill="#17181D" d="M-.022 66.972L79.95.524l44.444 105.265z"/><path d="M78 50.398l-7.105 7.106a20.383 20.383 0 0 1 4.772 13.094c0 11.532-9.659 20.875-21.574 20.875a21.953 21.953 0 0 1-12.975-4.192L32.405 96 29 92.595l8.568-8.574a20.377 20.377 0 0 1-5.044-13.423c0-11.53 9.66-20.88 21.575-20.88a21.934 21.934 0 0 1 13.322 4.457L74.6 47l3.4 3.398zM43.986 77.597L61.198 60.39a11.86 11.86 0 0 0-7.105-2.364c-6.721 0-12.175 5.624-12.175 12.565a12.786 12.786 0 0 0 2.068 7.01v-.005zm20.446-13.631L47.347 81.083a11.834 11.834 0 0 0 6.746 2.1c6.72 0 12.168-5.624 12.168-12.56a12.786 12.786 0 0 0-1.829-6.65v-.007z" fill="#2B2D30"/></g></svg>