<?xml version="1.0" standalone="no"?>
<!DOCTYPE svg PUBLIC "-//W3C//DTD SVG 20010904//EN"
 "http://www.w3.org/TR/2001/REC-SVG-20010904/DTD/svg10.dtd">
<svg version="1.0" xmlns="http://www.w3.org/2000/svg"
 width="640.000000pt" height="640.000000pt" viewBox="0 0 640.000000 640.000000"
 preserveAspectRatio="xMidYMid meet">
<metadata>
Created by potrace 1.11, written by Peter Selinger 2001-2013
</metadata>
<g transform="translate(0.000000,640.000000) scale(0.100000,-0.100000)"
fill="#000000" stroke="none">
<path d="M5486 5931 l-468 -469 -87 63 c-178 128 -419 255 -644 339 -99 37
-306 100 -362 109 -16 3 -55 11 -85 17 -74 15 -87 17 -145 25 -27 4 -61 8 -75
10 -162 23 -548 23 -680 1 -14 -3 -47 -7 -75 -11 -27 -3 -57 -8 -65 -10 -8 -2
-33 -6 -55 -10 -22 -3 -47 -7 -55 -10 -8 -2 -26 -6 -40 -9 -14 -2 -50 -11 -80
-20 -30 -9 -57 -16 -60 -16 -14 -1 -95 -25 -181 -55 -579 -201 -1077 -582
-1416 -1085 -45 -67 -173 -285 -173 -295 0 -2 -15 -37 -34 -77 -101 -213 -193
-525 -221 -743 -27 -220 -28 -532 -1 -725 61 -433 227 -849 478 -1195 70 -97
90 -124 128 -167 l30 -33 -560 -560 -560 -560 223 -223 222 -222 569 569 569
569 103 -69 c56 -38 106 -69 109 -69 4 0 19 -9 34 -19 91 -65 420 -210 590
-261 168 -50 372 -94 484 -105 29 -3 77 -8 107 -12 76 -10 416 -10 520 0 149
14 172 17 320 47 1114 224 1974 1067 2195 2153 9 43 18 97 20 120 3 23 7 53
10 67 16 76 23 360 12 520 -6 91 -9 113 -22 205 -50 333 -175 679 -353 974
-67 112 -157 240 -209 300 l-32 36 465 465 464 465 -223 223 -222 222 -469
-469z m-1918 -999 c126 -26 291 -81 397 -134 70 -35 202 -116 230 -140 9 -8
-2220 -2248 -2236 -2248 -9 0 -45 62 -102 175 -80 158 -146 390 -162 565 -6
77 -6 279 1 335 14 118 22 158 50 270 74 286 236 562 447 762 66 62 93 85 175
149 91 71 285 169 425 215 79 26 242 62 322 72 88 10 356 -2 453 -21z m1122
-865 c66 -139 85 -189 119 -320 66 -254 74 -518 21 -775 -39 -196 -109 -370
-218 -546 -399 -645 -1194 -916 -1894 -647 -108 42 -278 131 -317 167 -8 7
2222 2233 2231 2228 5 -3 31 -51 58 -107z"/>
</g>
</svg>
