<?xml version="1.0" encoding="UTF-8"?>
<svg width="125px" height="106px" viewBox="0 0 125 106" version="1.1" xmlns="http://www.w3.org/2000/svg" xmlns:xlink="http://www.w3.org/1999/xlink">
    <!-- Generator: Sketch 51.2 (57519) - http://www.bohemiancoding.com/sketch -->
    <title>Footer Copy</title>
    <desc>Created with Sketch.</desc>
    <defs></defs>
    <g id="Page-1" stroke="none" stroke-width="1" fill="none" fill-rule="evenodd">
        <g id="Footer-Copy" transform="translate(-12.000000, -2.000000)">
            <g id="logo_footer">
                <g id="Group-5">
                    <polygon id="Rectangle-7" fill="#17181D" transform="translate(68.197110, 70.986887) rotate(-109.000000) translate(-68.197110, -70.986887) " points="88.405764 18.4868869 125.19711 115.735356 11.19711 123.486887"></polygon>
                    <path d="M90,52.3982244 L82.8946217,59.5036027 C85.9747654,63.1721441 87.664491,67.8082869 87.6672671,72.5984303 C87.6672671,84.1296963 78.008492,93.4732373 66.0926402,93.4732373 C61.4322403,93.4883754 56.8879435,92.0199802 53.1176016,89.2806227 L44.4045291,98 L41,94.5954709 L49.5680648,86.0211014 C46.3161042,82.3057301 44.523801,77.5359632 44.5243181,72.5984303 C44.5243181,61.0671642 54.1830932,51.7173186 66.0989449,51.7173186 C70.9081239,51.7024891 75.5888848,53.26865 79.4207411,56.1747298 L86.6017756,49 L90,52.3982244 Z M55.9862326,79.5966289 L73.1980185,62.3911477 C71.1470681,60.856342 68.6542855,60.026889 66.0926402,60.0268914 C59.3718477,60.0268914 53.9182964,65.6506691 53.9182964,72.5921256 C53.9107014,75.0805021 54.6293861,77.5170183 55.9862326,79.6029336 L55.9862326,79.5966289 Z M76.4323212,65.9659032 L59.3466289,83.0831189 C61.3290605,84.4535311 63.6826501,85.1860033 66.0926402,85.1825785 C72.8134328,85.1825785 78.2606794,79.5588008 78.2606794,72.623649 C78.2721217,70.2808658 77.639649,67.9799737 76.4323212,65.9722079 L76.4323212,65.9659032 Z" id="Combined-Shape" fill="#2B2D30"></path>
                </g>
            </g>
        </g>
    </g>
</svg>